<?xml version="1.0" encoding="iso-8859-1"?>
<!-- Generator: Adobe Illustrator 23.0.4, SVG Export Plug-In . SVG Version: 6.00 Build 0)  -->
<svg version="1.1" id="Capa_1" xmlns="http://www.w3.org/2000/svg" xmlns:xlink="http://www.w3.org/1999/xlink" x="0px" y="0px"
	 viewBox="0 0 1477.685 1581.036" style="enable-background:new 0 0 1477.685 1581.036;" xml:space="preserve">
<g>
	<path style="fill:#FFFFFF;" d="M800.195,1315.837c-4.542-1.363-4.635-3.781-5.013-7.449c-0.511-4.954-4.045-7.649-8.909-8.001
		c-4.482-0.323-9.001,1.706-9.442,5.991c-0.709,6.893-4.607,6.713-9.521,6.528c-4.93-0.185-9.878-0.001-14.815,0.134
		c-3.325,0.091-6.326,0.396-6.09-4.621c0.139-2.951-2.34-4.723-5.191-4.865c-3.339-0.167-5.985,1.826-5.874,5.09
		c0.143,4.231-1.763,4.59-5.156,4.585c-52.537-0.073-105.075-0.051-158.364-0.051c34.641-20.923,69.16-41.721,103.595-62.655
		c3.062-1.861,4.311-1.021,6.003,1.661c1.601,2.538,4.445,2.673,7,1.36c2.656-1.365,4.071-4.193,2.561-6.569
		c-2.956-4.653,0.138-5.902,3.22-7.747c13.451-8.053,26.879-16.146,40.236-24.353c3.083-1.894,6.003-2.792,9.77-2.354
		c5.802,0.675,9.595-2.668,10.385-8.253c0.799-5.647-2.236-9.73-7.782-10.864c-5.591-1.143-9.778,1.479-11.224,7.088
		c-0.834,3.238-1.853,5.647-4.965,7.519c-54.983,33.073-109.842,66.352-164.868,99.353c-6.039,3.621-12.983,2.567-17.999-2.237
		c-10.276-9.842-19.915-20.348-29.884-30.514c-2.142-2.184-3.385-3.512-1.078-7.036c2.964-4.529-1.029-10.479-5.068-8.337
		c-7.597,4.028-10.265-1.406-13.85-5.317c-8.022-8.751-17.53-16.13-24.124-26.211c-1.351-2.065-3.555-2.958-6.103-2.278
		c-2.507,0.67-3.976,2.312-4.222,4.926c-0.242,2.567,0.667,4.996,3.053,5.693c3.26,0.953,5.563,2.859,7.811,5.176
		c22.262,22.94,44.556,45.848,66.852,68.755c2.423,2.489,4.296,4.84,4.746,8.803c0.953,8.38,8.36,11.726,15.251,6.999
		c3.082-2.114,5.897-3.098,9.529-3.133c69.441-0.667,138.882-1.41,208.322-2.19c4.233-0.047,7.617-0.415,7.747,5.856
		c0.109,5.25,4.371,7.995,9.716,7.915c4.597-0.069,7.758-2.684,8.989-6.956C806.908,1322.174,805.179,1317.333,800.195,1315.837z"/>
	<path style="fill:#FFFFFF;" d="M444.771,1224.428c-6.143,0.179-9.582,3.974-9.443,10.003c0.14,6.093,3.885,9.253,10.102,9.54
		c5.996-0.635,9.602-4.131,9.405-10.091C454.64,1227.967,450.931,1224.248,444.771,1224.428z"/>
	<path style="fill:#FFFFFF;" d="M1186.938,573.627c-0.23,6.061,3.388,9.926,9.362,10.187c6.012,0.263,9.926-3.437,10.196-9.389
		c0.272-6.002-3.413-9.451-9.486-10.31C1191.104,564.51,1187.17,567.535,1186.938,573.627z"/>
	<path style="fill:#FFFFFF;" d="M346.418,951.017c-5.903,0.183-9.708,3.928-9.55,10.023c0.157,6.059,3.985,9.63,10.006,9.512
		c6.056-0.119,9.278-3.849,9.606-10.281C355.792,954.562,352.404,950.832,346.418,951.017z"/>
	<path style="fill:#FFFFFF;" d="M315.684,930.278c-5.925,0.403-9.437,4.203-9.064,10.397c0.375,6.232,4.41,9.487,10.303,9.126
		c5.937-0.364,9.121-4.273,9.276-10.507C325.2,933.448,321.655,929.872,315.684,930.278z"/>
	<path style="fill:#FFFFFF;" d="M479.52,475.085c6.215-0.513,9.754-3.985,9.627-9.986c-0.126-5.988-3.885-9.723-9.939-9.59
		c-6.021,0.132-9.713,3.995-9.607,9.959C469.708,471.441,473.469,474.749,479.52,475.085z"/>
	<path style="fill:#FFFFFF;" d="M1303.401,579.673c6.062,0.263,9.52-3.165,10.243-9.154c-0.205-6.23-3.416-10.048-9.392-10.301
		c-5.96-0.253-9.866,3.224-10.14,9.336C1293.838,575.675,1297.329,579.409,1303.401,579.673z"/>
	<path style="fill:#FFFFFF;" d="M310.001,692.663c5.655-0.712,9.568-3.655,9.565-9.97c-0.002-5.763-3.215-9.355-9.065-9.646
		c-6.239-0.311-10.071,3.118-10.366,9.25C299.837,688.497,303.615,691.786,310.001,692.663z"/>
	<path style="fill:#FFFFFF;" d="M646.642,748.14c-6.251-0.057-9.873,3.653-9.889,9.772c-0.015,5.681,3.39,9.317,9.19,9.606
		c6.257,0.311,9.619-3.193,10.384-9.306C655.967,752.039,652.948,748.197,646.642,748.14z"/>
	<path style="fill:#FFFFFF;" d="M983.399,978.499c0.064-6.08-3.766-9.801-9.692-9.878c-5.962-0.077-9.414,3.574-9.936,9.987
		c0.48,5.771,3.744,9.557,9.753,9.583C979.483,988.216,983.335,984.564,983.399,978.499z"/>
	<path style="fill:#FFFFFF;" d="M1260.911,769.934c6.071-0.166,9.246-3.911,9.539-10.239c-0.692-5.837-4.18-9.486-10.127-9.281
		c-5.902,0.204-9.682,4.015-9.481,10.088C1251.042,766.532,1254.866,770.1,1260.911,769.934z"/>
	<path style="fill:#FFFFFF;" d="M306.845,972.729c-0.07-6.182-3.906-9.805-10.009-9.697c-5.656,0.1-9.23,3.559-9.404,9.389
		c-0.187,6.286,3.347,9.576,9.595,10.188C303.084,982.122,306.916,978.97,306.845,972.729z"/>
	<path style="fill:#FFFFFF;" d="M1171.83,536.75c0.11,5.81,3.537,9.196,9.332,9.358c6.283,0.175,9.451-3.513,10.252-9.532
		c-0.648-6.082-3.779-9.925-10.011-9.844C1175.21,526.812,1171.712,530.529,1171.83,536.75z"/>
	<path style="fill:#FFFFFF;" d="M348.474,925.363c-0.198-6.021-4.055-9.726-10.258-9.48c-5.759,0.229-9.168,3.893-9.223,9.599
		c-0.059,6.184,3.506,9.566,9.847,9.941C344.988,934.929,348.673,931.435,348.474,925.363z"/>
	<path style="fill:#FFFFFF;" d="M1228.886,748.34c5.775-0.095,9.285-3.512,9.477-9.263c0.207-6.188-3.277-9.936-9.482-10.113
		c-6.286-0.18-9.416,3.608-10.072,9.647C1219.437,744.754,1222.619,748.443,1228.886,748.34z"/>
	<path style="fill:#FFFFFF;" d="M1061.232,504.656c6.026-0.662,9.598-4.27,9.288-10.302c-0.31-6.04-4.298-9.635-10.464-9.249
		c-5.722,0.359-9.068,4.088-8.994,9.817C1051.141,501.142,1054.83,504.369,1061.232,504.656z"/>
	<path style="fill:#FFFFFF;" d="M999.844,654.117c3.179-0.41,6.183-2.912,4.79-6.136c-2.118-4.901-3.669-11.274-10.009-12.589
		c-3.43-0.711-5.878,1.968-5.992,5.769C988.517,645.014,996.18,654.197,999.844,654.117z"/>
	<path style="fill:#FFFFFF;" d="M703.933,559.684c5.981,0.213,5.81-4.371,5.809-9.12c0-4.685,0.279-9.42-5.536-9.469
		c-5.621-0.048-6.816,4.192-5.312,9.382C697.411,555.123,698.127,559.477,703.933,559.684z"/>
	<path style="fill:#FFFFFF;" d="M1073.541,766.32c-3.538,0.024-6.041,2.29-5.904,6.096c0.117,3.243,2.102,5.398,5.471,5.6
		c3.824,0.229,5.761-2.015,6.478-5.664C1079.232,768.704,1077.129,766.296,1073.541,766.32z"/>
	<path style="fill:#FFFFFF;" d="M319.661,461.579c3.68,0.32,5.885-1.78,6.653-5.852c-0.396-3.173-1.976-5.729-5.838-5.842
		c-3.841-0.113-6.015,2.291-6.113,5.867C314.275,458.974,316.4,461.296,319.661,461.579z"/>
	<path style="fill:#FFFFFF;" d="M1006.714,443.147c3.845,0.258,5.748-2.042,6.483-5.456c-0.28-3.881-2.427-6.265-6.009-6.248
		c-3.525,0.017-6.05,2.235-5.925,6.083C1001.37,440.813,1003.356,442.922,1006.714,443.147z"/>
	<path style="fill:#FFFFFF;" d="M1135.633,978.916c-3.599,0.244-5.828,2.562-5.532,6.394c0.258,3.335,2.341,5.3,5.674,5.366
		c3.867,0.077,5.575-2.444,6.193-5.947C1141.308,981.182,1139.376,978.662,1135.633,978.916z"/>
	<path style="fill:#FFFFFF;" d="M1099.957,807.624c3.784-0.04,5.653-2.397,5.931-6.089c-0.569-3.713-2.75-5.856-6.43-5.636
		c-3.264,0.195-5.457,2.477-5.462,5.697C1093.991,805.18,1096.136,807.664,1099.957,807.624z"/>
	<path style="fill:#FFFFFF;" d="M262.37,1119.645c-3.38,0.134-5.409,2.329-5.563,5.531c-0.18,3.74,2.221,6.16,5.806,6.194
		c3.54,0.033,5.838-2.181,6.049-6.175C268.156,1121.678,266.169,1119.494,262.37,1119.645z"/>
	<path style="fill:#FFFFFF;" d="M567.089,1404.138c-3.718,0.246-5.766,2.595-5.528,6.363c0.214,3.382,2.503,5.338,5.686,5.397
		c3.714,0.068,5.64-2.39,6.175-6.017C572.706,1406.439,570.94,1403.884,567.089,1404.138z"/>
	<path style="fill:#FFFFFF;" d="M675.966,316.995c3.578-0.019,6.078-2.179,6.009-6c-0.068-3.773-2.439-5.643-6.184-5.887
		c-3.653,0.606-5.806,2.786-5.566,6.464C670.438,314.839,672.754,317.013,675.966,316.995z"/>
	<path style="fill:#FFFFFF;" d="M924.998,610.403c3.714-0.633,5.957-2.788,5.651-6.473c-0.302-3.638-2.746-5.839-6.501-5.421
		c-3.218,0.357-5.25,2.523-5.177,5.893C919.054,608.197,921.4,610.032,924.998,610.403z"/>
	<path style="fill:#FFFFFF;" d="M887.497,579.061c3.33-0.143,5.363-2.165,5.559-5.497c0.228-3.869-2.199-5.669-5.632-6.402
		c-3.717,0.44-6.191,2.459-6.106,6.107C881.401,576.827,883.645,579.227,887.497,579.061z"/>
	<path style="fill:#FFFFFF;" d="M583.65,1176.163c-0.22-3.267-2.459-5.452-5.689-5.47c-3.614-0.02-6.051,2.161-6.025,5.956
		c0.026,3.778,2.394,5.649,6.411,5.982C581.574,1181.894,583.902,1179.902,583.65,1176.163z"/>
	<path style="fill:#FFFFFF;" d="M478.57,1397.7c-3.132-0.009-5.556,1.899-5.817,5.296c-0.29,3.769,1.738,6.112,5.479,6.402
		c3.845,0.297,5.699-2.127,6.436-5.549C484.293,1400.044,482.189,1397.71,478.57,1397.7z"/>
	<path style="fill:#FFFFFF;" d="M951.085,556.131c3.373-0.474,5.95-2.293,6.048-5.976c0.085-3.167-1.809-5.566-5.174-5.934
		c-3.768-0.412-6.189,1.558-6.595,5.272C944.943,553.342,947.387,555.232,951.085,556.131z"/>
	<path style="fill:#FFFFFF;" d="M1270.095,551.11c3.858,0.091,5.576-2.445,6.214-5.908c-0.654-3.576-2.573-6.104-6.322-5.866
		c-3.615,0.229-5.827,2.565-5.553,6.382C1264.672,549.057,1266.779,551.032,1270.095,551.11z"/>
	<path style="fill:#FFFFFF;" d="M1288.962,535.42c-3.756,0.362-5.671,2.757-5.32,6.518c0.317,3.396,2.707,5.286,5.855,5.219
		c3.632-0.078,5.646-2.486,5.967-6.22C1294.666,537.499,1292.835,535.047,1288.962,535.42z"/>
	<path style="fill:#FFFFFF;" d="M1288.216,412.861c3.247-0.122,5.454-2.39,5.531-5.615c0.087-3.634-2.124-5.804-6.277-6.277
		c-3.123,0.584-5.632,2.34-5.499,6.166C1282.102,410.905,1284.591,412.997,1288.216,412.861z"/>
	<path style="fill:#FFFFFF;" d="M436.461,1457.812c-3.378,0.296-5.314,2.463-5.322,5.664c-0.009,3.704,2.333,5.924,6.036,5.818
		c3.676-0.105,5.699-2.328,5.809-6.706C442.168,1459.713,440.301,1457.475,436.461,1457.812z"/>
	<path style="fill:#FFFFFF;" d="M1197.188,452.916c3.532-0.332,6.062-2.023,6.19-5.826c0.112-3.298-1.786-5.51-5.102-5.927
		c-3.798-0.477-6.24,1.592-6.668,5.204C1191.163,450.123,1193.541,452.164,1197.188,452.916z"/>
	<path style="fill:#FFFFFF;" d="M994.934,453.555c3.765,0.058,6.058-2.098,6.115-5.816c0.059-3.815-2.538-5.531-6.049-6.045
		c-3.549,0.726-5.989,2.667-5.721,6.43C989.506,451.314,991.547,453.503,994.934,453.555z"/>
	<path style="fill:#FFFFFF;" d="M1346.052,325.75c3.613,0.002,5.955-2.181,5.92-5.957c-0.035-3.776-2.354-5.617-6.234-5.905
		c-3.457,0.622-5.512,2.768-5.294,6.447C1340.639,323.63,1342.824,325.748,1346.052,325.75z"/>
	<path style="fill:#FFFFFF;" d="M559.641,750.116c0.22-3.771-2.162-5.679-5.801-6.099c-3.65,0.337-6.018,2.214-5.944,5.972
		c0.064,3.237,2.027,5.362,5.389,5.567C557.034,755.783,559.427,753.807,559.641,750.116z"/>
	<path style="fill:#FFFFFF;" d="M1154.803,744.895c-2.869,3.611-2.166,7.602,1.059,9.732c2.431,1.605,6.307,0.666,8.255-2.572
		c2.327-3.869,0.134-6.501-2.747-8.841c0.064-0.664,0.128-1.328,0.192-1.993c4.092-5.268,3.725-9.173-3.451-10.75
		c-2.056-0.452-1.412-1.956-1.694-3.148c1.976-7.494-0.62-12.605-6.947-13.676c-5.649-0.957-11.4,3.485-11.311,9.285
		c0.108,7.057,4.027,10.542,11.173,10.159c1.156-0.062,2.308-0.209,3.461-0.316c-0.41,3.031-0.645,6.02,2.026,8.298
		C1154.814,742.346,1154.809,743.62,1154.803,744.895C1154.803,744.895,1154.803,744.895,1154.803,744.895z"/>
	<path style="fill:#FFFFFF;" d="M874.382,832.674c-3.14-0.004-5.538,1.855-5.784,5.273c-0.27,3.756,1.68,6.102,5.45,6.383
		c3.852,0.287,5.691-2.112,6.419-5.528C880.093,835.005,878.02,832.678,874.382,832.674z"/>
	<path style="fill:#FFFFFF;" d="M719.151,851.743c-3.463,0.668-5.939,2.434-5.728,6.306c0.18,3.316,2.21,5.336,5.555,5.477
		c3.813,0.161,6.109-2.07,6.23-5.698C725.333,854.082,722.791,852.214,719.151,851.743z"/>
	<path style="fill:#FFFFFF;" d="M267.143,726.483c-3.216,0.188-5.427,2.125-5.487,5.503c-0.066,3.734,2.057,5.963,5.801,6.027
		c3.811,0.065,5.561-2.385,6.086-5.812C272.9,728.496,270.869,726.265,267.143,726.483z"/>
	<path style="fill:#FFFFFF;" d="M1217.962,875.189c-3.759,0.204-5.819,2.555-5.566,6.236c0.225,3.273,2.482,5.217,5.755,5.227
		c3.694,0.012,5.733-2.137,6.112-5.857C1223.696,877.195,1221.737,874.985,1217.962,875.189z"/>
	<path style="fill:#FFFFFF;" d="M533.923,704.202c-3.366,0.298-5.269,2.445-5.213,5.696c0.065,3.724,2.381,5.621,6.132,5.748
		c3.687-0.424,5.91-2.5,5.603-6.217C540.14,705.745,537.663,703.871,533.923,704.202z"/>
	<path style="fill:#FFFFFF;" d="M472.661,697.398c3.785,0.228,6.128-2.157,6.217-5.76c0.089-3.602-2.14-5.83-6.48-6.196
		c-2.912,0.735-5.374,2.432-5.207,6.33C467.336,695.161,469.429,697.203,472.661,697.398z"/>
	<path style="fill:#FFFFFF;" d="M747.064,438.258c3.737,0.081,6.088-1.994,6.094-5.698c0.005-3.698-2.336-5.642-6.123-5.791
		c-3.638,0.421-5.822,2.439-5.612,6.19C741.608,436.259,743.75,438.186,747.064,438.258z"/>
	<path style="fill:#FFFFFF;" d="M366.137,1271.547c-0.167-3.746-2.534-5.725-6.262-5.568c-3.357,0.142-5.385,2.275-5.498,5.503
		c-0.132,3.745,2.232,5.684,5.871,6.135C363.789,1277.125,366.309,1275.399,366.137,1271.547z"/>
	<path style="fill:#FFFFFF;" d="M1119.838,433.74c3.058-0.924,5.544-2.69,5.118-6.593c-0.361-3.313-2.475-5.247-5.806-5.23
		c-3.81,0.019-6.043,2.427-5.951,6.016C1113.293,431.56,1115.794,433.525,1119.838,433.74z"/>
	<path style="fill:#FFFFFF;" d="M799.161,587.86c3.88,0.058,5.581-2.443,6.158-5.935c-0.652-3.604-2.617-6.093-6.361-5.822
		c-3.604,0.261-5.826,2.585-5.509,6.428C793.725,585.876,795.813,587.81,799.161,587.86z"/>
	<path style="fill:#FFFFFF;" d="M1233.216,970.1c-3.207,0.141-5.395,2.135-5.548,5.523c-0.171,3.788,1.949,5.815,5.728,6.393
		c3.67-0.291,5.973-2.468,5.938-6.044C1239.3,972.412,1236.992,969.935,1233.216,970.1z"/>
	<path style="fill:#FFFFFF;" d="M1292.837,980.504c-3.219-0.147-5.487,1.716-5.898,5.063c-0.46,3.741,1.394,6.24,5.068,6.678
		c3.754,0.448,5.837-1.775,6.503-5.695C1298.316,983.167,1296.55,980.674,1292.837,980.504z"/>
	<path style="fill:#FFFFFF;" d="M313.398,1260.806c0.248-3.744-2.263-5.697-6.155-6.375c-3.079,0.768-5.737,2.312-5.621,6.249
		c0.099,3.346,2.028,5.431,5.376,5.684C310.842,1266.654,313.159,1264.406,313.398,1260.806z"/>
	<path style="fill:#FFFFFF;" d="M609.528,1005.994c0.288,3.642,2.644,5.858,6.45,5.469c3.284-0.336,5.216-2.511,5.191-5.862
		c-0.03-3.831-2.422-5.615-5.926-6.076C611.5,1000.165,609.235,1002.286,609.528,1005.994z"/>
	<path style="fill:#FFFFFF;" d="M1345.088,599.673c0.049,3.191,1.981,5.456,5.377,5.69c3.775,0.26,6.141-1.722,6.406-5.457
		c0.274-3.856-2.235-5.651-5.721-6.313C1347.513,594.052,1345.03,595.928,1345.088,599.673z"/>
	<path style="fill:#FFFFFF;" d="M636.404,1227.664c-0.072-3.756-2.506-5.725-6.184-5.617c-3.309,0.097-5.437,2.15-5.561,5.408
		c-0.141,3.703,2.071,5.753,5.778,6.128C634.12,1233.307,636.476,1231.423,636.404,1227.664z"/>
	<path style="fill:#FFFFFF;" d="M382.168,616.565c3.736,0.362,5.81-1.91,6.544-5.583c-0.41-3.518-2.182-5.936-5.98-6.02
		c-3.313-0.073-5.545,1.794-5.921,5.097C376.379,613.855,378.519,616.211,382.168,616.565z"/>
	<path style="fill:#FFFFFF;" d="M965.195,507.829c3.753,0.167,5.816-1.88,6.323-5.372c-0.165-4.026-2.37-6.166-5.969-6.166
		c-3.646,0-5.988,2.318-5.854,6.035C959.81,505.524,961.827,507.68,965.195,507.829z"/>
	<path style="fill:#FFFFFF;" d="M947.729,607.181c-0.245,3.728,2.069,6.198,5.667,6.309c3.586,0.111,5.813-2.15,6.111-6.023
		c-0.399-3.621-2.381-5.814-6.161-5.752C949.943,601.77,947.939,603.992,947.729,607.181z"/>
	<path style="fill:#FFFFFF;" d="M835.76,608.15c0.291,3.277,2.611,5.405,5.807,5.344c3.551-0.068,6.092-2.239,5.957-6.054
		c-0.132-3.727-2.528-5.611-6.744-5.836C837.788,602.433,835.426,604.389,835.76,608.15z"/>
	<path style="fill:#FFFFFF;" d="M381.601,1154.769c-3.32,0.089-5.28,2.187-5.449,5.487c-0.192,3.74,1.891,5.79,5.95,6.448
		c3.055-0.631,5.583-2.273,5.494-6.11C387.509,1156.879,385.357,1154.668,381.601,1154.769z"/>
	<path style="fill:#FFFFFF;" d="M149.072,1102.763c-3.182-0.024-5.55,2.073-5.782,5.363c-0.26,3.681,1.797,6.146,5.54,6.388
		c3.799,0.245,5.729-2.119,6.349-5.633C154.831,1105.06,152.661,1102.79,149.072,1102.763z"/>
	<path style="fill:#FFFFFF;" d="M695.763,1018.981c-0.719-3.442-2.538-5.855-6.395-5.638c-3.328,0.187-5.389,2.26-5.539,5.548
		c-0.174,3.818,2.262,6.102,5.811,6.186C693.265,1025.164,695.331,1022.723,695.763,1018.981z"/>
	<path style="fill:#FFFFFF;" d="M981.54,1004.425c-3.578,0.316-5.878,2.425-5.82,6.045c0.057,3.612,2.4,5.991,6.149,5.797
		c3.184-0.165,5.386-2.136,5.511-5.542C987.518,1006.931,985.414,1004.92,981.54,1004.425z"/>
	<path style="fill:#FFFFFF;" d="M1225.201,409.658c3.687,0.173,5.763-2.164,6.254-5.826c-0.421-3.716-2.489-5.994-6.169-5.971
		c-3.281,0.02-5.486,2.211-5.704,5.443C1219.331,407.003,1221.54,409.485,1225.201,409.658z"/>
	<path style="fill:#FFFFFF;" d="M382.392,628.086c-3.639,0.248-5.829,2.58-5.579,6.352c0.222,3.338,2.494,5.335,5.697,5.399
		c3.721,0.075,5.633-2.379,6.206-5.954C388.003,630.406,386.2,627.827,382.392,628.086z"/>
	<path style="fill:#FFFFFF;" d="M725.202,989.497c-0.098-3.609-2.442-5.699-6.351-5.847c-3.482,0.69-5.692,2.705-5.407,6.497
		c0.253,3.365,2.598,5.348,5.758,5.364C722.846,995.53,725.302,993.168,725.202,989.497z"/>
	<path style="fill:#FFFFFF;" d="M1314.5,801.194c0.111-3.561-2.092-5.805-5.99-6.086c-3.589,0.364-5.754,2.339-5.709,6.098
		c0.041,3.392,2.232,5.38,5.414,5.596C1311.924,807.054,1314.388,804.789,1314.5,801.194z"/>
	<path style="fill:#FFFFFF;" d="M37.247,583.371c-3.114-0.024-5.547,1.732-5.829,5.157c-0.308,3.741,1.595,6.083,5.346,6.406
		c3.823,0.329,5.699-2.009,6.499-5.572C42.86,585.785,40.893,583.398,37.247,583.371z"/>
	<path style="fill:#FFFFFF;" d="M1144.273,644.367c-0.442-3.647-2.392-6.03-6.143-5.912c-3.734,0.117-5.87,2.618-5.716,6.267
		c0.137,3.248,2.385,5.459,5.622,5.528C1141.677,650.327,1143.832,648.1,1144.273,644.367z"/>
	<path style="fill:#FFFFFF;" d="M324.61,577.717c-3.175,0.278-5.409,2.354-5.408,5.719c0.002,3.731,2.229,6.043,5.945,6.029
		c3.77-0.013,5.54-2.57,5.993-6.134C330.339,579.807,328.367,577.388,324.61,577.717z"/>
	<path style="fill:#FFFFFF;" d="M1312.849,962.821c-3.781,0.35-6.095,2.445-6.141,6.058c-0.04,3.2,2.062,5.531,5.328,5.801
		c3.693,0.305,6.147-1.794,6.429-5.486C1318.754,965.402,1316.339,963.487,1312.849,962.821z"/>
	<path style="fill:#FFFFFF;" d="M1403.992,663.734c3.7,0.411,5.838-1.84,6.619-5.54c-0.366-3.465-2.036-5.942-5.858-6.081
		c-3.324-0.122-5.546,1.689-5.967,5.002C1398.305,660.897,1400.363,663.331,1403.992,663.734z"/>
	<path style="fill:#FFFFFF;" d="M1303.663,497.429c3.738,0.104,5.725-2.105,6.19-6.073c-0.595-3.304-2.524-5.519-6.28-5.404
		c-3.309,0.101-5.482,2.104-5.628,5.354C1297.78,494.975,1299.916,497.325,1303.663,497.429z"/>
	<path style="fill:#FFFFFF;" d="M394.008,1256.261c-3.718-0.094-6.016,2.308-5.967,5.919c0.048,3.568,2.239,5.766,6.298,5.867
		c3.411-0.581,5.498-2.591,5.26-6.377C399.387,1258.294,397.189,1256.341,394.008,1256.261z"/>
	<path style="fill:#FFFFFF;" d="M1266.657,932.739c-3.342,0.164-5.359,2.178-5.474,5.462c-0.133,3.792,2.186,5.671,5.828,6.06
		c3.659-0.335,6.074-2.223,5.911-5.979C1272.763,934.625,1270.426,932.554,1266.657,932.739z"/>
	<path style="fill:#FFFFFF;" d="M783.438,1268.289c-3.253,0.322-5.348,2.625-5.273,5.828c0.083,3.601,2.393,6.03,6.107,5.869
		c3.647-0.158,5.586-2.569,5.77-6.344C789.236,1270.16,787.173,1267.918,783.438,1268.289z"/>
	<path style="fill:#FFFFFF;" d="M794.418,903.773c-3.212-0.012-5.511,2.063-5.792,5.316c-0.319,3.697,1.795,6.14,5.463,6.427
		c3.776,0.296,5.681-2.148,6.447-5.939C799.947,906.302,798.103,903.787,794.418,903.773z"/>
	<path style="fill:#FFFFFF;" d="M577.334,681.586c-0.141-3.861-2.156-6.221-5.801-6.371c-3.739-0.154-6.037,2.329-6.091,5.929
		c-0.048,3.183,2.011,5.541,5.318,5.827C574.504,687.295,576.598,685.097,577.334,681.586z"/>
	<path style="fill:#FFFFFF;" d="M211.056,528.633c3.839,0.349,5.732-2.002,6.531-5.571c-0.35-3.634-2.361-6.01-6.002-6.077
		c-3.14-0.058-5.546,1.741-5.848,5.173C205.406,525.922,207.291,528.292,211.056,528.633z"/>
	<path style="fill:#FFFFFF;" d="M767.185,1297.562c3.781,0.005,5.88-2.273,5.836-5.966c-0.045-3.757-2.444-5.564-6.179-5.911
		c-3.409,0.801-5.585,2.764-5.258,6.557C761.869,1295.541,763.849,1297.557,767.185,1297.562z"/>
	<path style="fill:#FFFFFF;" d="M701.878,696.941c-0.061-3.665-2.439-5.914-6.127-5.713c-3.179,0.173-5.305,2.214-5.392,5.583
		c-0.097,3.751,1.954,5.784,5.504,6.17C699.856,702.766,701.939,700.545,701.878,696.941z"/>
	<path style="fill:#FFFFFF;" d="M939.682,573.48c3.692,0.217,5.744-2.066,6.126-5.766c-0.285-3.671-2.128-5.992-5.917-5.966
		c-3.316,0.022-5.333,2.023-5.581,5.338C934.029,570.834,936.022,573.265,939.682,573.48z"/>
	<path style="fill:#FFFFFF;" d="M654.129,517.663c3.397-0.795,5.718-2.693,5.336-6.515c-0.374-3.738-2.731-5.624-6.472-5.268
		c-3.42,0.326-5.166,2.79-5.088,5.89C647.995,515.37,650.322,517.42,654.129,517.663z"/>
	<path style="fill:#FFFFFF;" d="M586.28,892.328c0.07,3.234,2.218,5.447,5.471,5.633c3.718,0.212,5.744-2.086,6.411-5.63
		c-0.387-3.692-2.349-6.125-6.022-6.109C588.475,886.237,586.2,888.658,586.28,892.328z"/>
	<path style="fill:#FFFFFF;" d="M1199.087,717.588c-3.56,0.009-6.047,2.254-5.922,6.08c0.107,3.278,2.106,5.383,5.478,5.589
		c3.835,0.235,5.772-2.005,6.464-5.422C1204.862,719.886,1202.67,717.579,1199.087,717.588z"/>
	<path style="fill:#FFFFFF;" d="M1308.36,728.666c0.219,3.235,2.348,5.387,5.636,5.461c3.731,0.084,6.072-2.23,6.107-5.859
		c0.036-3.688-2.467-5.597-6.108-6.031C1310.5,722.968,1308.106,724.901,1308.36,728.666z"/>
	<path style="fill:#FFFFFF;" d="M281.382,558.535c-3.259,0.235-5.426,2.539-5.403,5.748c0.026,3.576,2.207,6.07,6.003,5.998
		c3.759-0.071,5.617-2.477,5.879-6.221C287.214,560.464,285.082,558.268,281.382,558.535z"/>
	<path style="fill:#FFFFFF;" d="M653.888,551.349c-3.805-0.155-5.942,2.354-5.999,5.926c-0.051,3.184,1.936,5.533,5.253,5.808
		c3.733,0.309,5.842-1.805,6.427-5.359C659.494,553.855,657.592,551.5,653.888,551.349z"/>
	<path style="fill:#FFFFFF;" d="M1059.435,851.972c-3.572-0.171-5.78,1.944-6.137,5.77c0.31,3.585,2.246,5.732,5.969,5.746
		c3.359,0.013,5.377-2.11,5.644-5.248C1065.224,854.572,1063.035,852.144,1059.435,851.972z"/>
	<path style="fill:#FFFFFF;" d="M762.777,560.565c3.672,0.196,5.927-1.68,6.438-5.531c-0.209-3.634-2.093-5.901-5.856-5.958
		c-3.779-0.058-5.983,2.256-5.973,5.88C757.395,558.155,759.423,560.385,762.777,560.565z"/>
	<path style="fill:#FFFFFF;" d="M515.967,474.343c3.328-0.286,5.313-2.532,5.331-5.773c0.02-3.759-2.482-5.589-6.277-6.151
		c-3.203,0.84-5.81,2.658-5.504,6.441C509.811,472.487,512.172,474.669,515.967,474.343z"/>
	<path style="fill:#FFFFFF;" d="M1130.668,408.122c3.701-0.633,5.61-2.811,5.33-6.527c-0.251-3.339-2.389-5.336-5.628-5.295
		c-3.653,0.047-5.883,2.261-5.783,6.034C1124.688,406.103,1126.971,407.943,1130.668,408.122z"/>
	<path style="fill:#FFFFFF;" d="M1025.987,405.613c3.703,0.2,6.192-1.984,6.289-5.664c0.097-3.669-2.219-5.758-6.003-6.068
		c-3.684,0.391-5.899,2.427-5.825,6.165C1020.514,403.407,1022.763,405.438,1025.987,405.613z"/>
	<path style="fill:#FFFFFF;" d="M540.282,375.179c3.779-0.081,5.598-2.387,5.786-6.05c-0.522-3.768-2.742-5.74-6.404-5.501
		c-3.291,0.215-5.38,2.463-5.351,5.666C534.346,372.86,536.466,375.261,540.282,375.179z"/>
	<path style="fill:#FFFFFF;" d="M295.562,830.703c3.33,0.04,5.543-1.967,5.803-5.172c0.295-3.634-1.721-6.053-5.507-6.262
		c-3.739-0.206-5.811,1.853-6.327,5.572C289.832,828.544,291.855,830.659,295.562,830.703z"/>
	<path style="fill:#FFFFFF;" d="M421.191,1449.652c-3.209-0.129-5.549,1.816-5.961,5.111c-0.471,3.773,1.627,6.179,5.246,6.622
		c3.807,0.466,5.716-2.02,6.593-5.459C426.761,1452.249,424.857,1449.799,421.191,1449.652z"/>
	<path style="fill:#FFFFFF;" d="M860.315,502.394c3.83-0.516,5.677-2.783,5.454-6.458c-0.203-3.359-2.447-5.367-5.643-5.349
		c-3.615,0.021-5.924,2.225-5.837,6.016C854.376,500.371,856.632,502.245,860.315,502.394z"/>
	<path style="fill:#FFFFFF;" d="M833.333,539.36c-3.217,0.122-5.3,2.194-5.399,5.545c-0.11,3.71,1.855,5.832,5.642,6.259
		c3.697-0.287,5.855-2.315,5.796-6.025C839.313,541.417,837.008,539.22,833.333,539.36z"/>
	<path style="fill:#FFFFFF;" d="M1001.946,772.103c-3.369,0.141-5.371,2.298-5.43,5.492c-0.067,3.63,2.073,5.953,5.853,5.935
		c3.737-0.018,5.702-2.174,5.888-5.913C1007.815,773.844,1005.645,771.948,1001.946,772.103z"/>
	<path style="fill:#FFFFFF;" d="M421.683,466.753c-0.079,3.274,1.631,5.553,4.945,5.926c3.68,0.414,6.11-1.422,6.481-5.182
		c0.37-3.745-1.725-5.812-5.688-6.604C424.35,461.402,421.775,462.91,421.683,466.753z"/>
	<path style="fill:#FFFFFF;" d="M601.957,1456.745c-3.525,0.348-5.863,2.14-5.944,5.911c-0.07,3.28,1.701,5.567,5.016,5.889
		c3.67,0.356,6.091-1.501,6.408-5.3C607.751,1459.472,605.634,1457.45,601.957,1456.745z"/>
	<path style="fill:#FFFFFF;" d="M368.441,1399.183c-3.444,0.41-5.855,2.136-5.945,5.924c-0.078,3.3,1.737,5.511,5.037,5.884
		c3.762,0.425,6.112-1.626,6.472-5.288C374.372,1401.962,372.114,1399.935,368.441,1399.183z"/>
	<path style="fill:#FFFFFF;" d="M310.216,1341.607c-2.928,0.827-5.48,2.411-5.285,6.311c0.166,3.316,2.037,5.373,5.376,5.553
		c3.82,0.206,6.02-2.031,6.154-5.659C316.598,1344.119,314.281,1342.119,310.216,1341.607z"/>
	<path style="fill:#FFFFFF;" d="M324.111,515.747c0.052,3.332,1.911,5.435,5.215,5.721c3.796,0.328,6.074-1.823,6.324-5.472
		c0.255-3.728-2.057-5.724-6.058-6.407C326.625,510.32,324.05,511.86,324.111,515.747z"/>
	<path style="fill:#FFFFFF;" d="M637.557,466.572c-0.097,3.607,1.851,5.879,5.749,6.23c3.639-0.255,5.825-2.235,5.785-5.972
		c-0.041-3.77-2.444-5.866-6.054-5.778C639.802,461.131,637.645,463.299,637.557,466.572z"/>
	<path style="fill:#FFFFFF;" d="M881.053,598.335c3.345-0.362,5.515-2.308,5.515-6.044c-0.001-3.316-2.001-5.543-5.205-5.767
		c-3.601-0.251-6.072,1.746-6.247,5.539C874.944,595.78,876.965,597.886,881.053,598.335z"/>
	<path style="fill:#FFFFFF;" d="M226.129,825.505c-3.588,0.388-5.525,2.907-5.064,6.666c0.409,3.333,2.525,5.14,5.843,5.004
		c3.808-0.156,5.51-2.528,5.589-6.147C232.013,827.213,229.73,825.117,226.129,825.505z"/>
	<path style="fill:#FFFFFF;" d="M551.227,1254.273c3.329-0.327,5.19-2.424,5.177-5.732c-0.016-3.852-2.495-5.501-6.046-5.879
		c-3.618,0.576-5.961,2.637-5.63,6.322C545.048,1252.561,547.442,1254.645,551.227,1254.273z"/>
	<path style="fill:#FFFFFF;" d="M307.105,607.814c3.729-0.069,6.16-2.043,6.262-5.649c0.101-3.579-2.12-5.917-5.904-5.944
		c-3.317-0.024-5.445,1.84-5.763,5.147C301.335,605.159,303.473,607.18,307.105,607.814z"/>
	<path style="fill:#FFFFFF;" d="M533.825,596.908c-3.674,0.034-5.856,2.298-5.758,6.048c0.099,3.772,2.394,5.601,6.347,5.769
		c3.34-0.734,5.388-2.769,5.068-6.541C539.199,598.828,537.043,596.878,533.825,596.908z"/>
	<path style="fill:#FFFFFF;" d="M660.915,738.896c3.626-0.004,5.691-2.271,5.807-6.595c-0.519-3.053-2.378-5.288-6.205-5.063
		c-3.369,0.198-5.211,2.307-5.304,5.59C655.106,736.583,657.267,738.9,660.915,738.896z"/>
	<path style="fill:#FFFFFF;" d="M676.697,422.231c0.077,3.837,2.456,5.527,6.013,5.702c3.833-0.437,5.995-2.64,5.651-6.274
		c-0.339-3.586-2.776-5.594-6.559-5.185C678.467,416.835,676.63,418.905,676.697,422.231z"/>
	<path style="fill:#FFFFFF;" d="M213.924,1114.063c-3.793,0.32-6.023,2.458-5.85,6.087c0.173,3.628,2.591,5.685,6.344,5.421
		c3.3-0.233,5.302-2.198,5.341-5.549C219.802,1116.216,217.542,1114.368,213.924,1114.063z"/>
	<path style="fill:#FFFFFF;" d="M793.507,1066.972c-0.113,3.358,1.753,5.539,5.164,5.843c3.888,0.346,5.829-1.91,6.498-5.384
		c-0.308-3.444-1.959-5.78-5.325-6.011C796.142,1061.166,793.638,1063.083,793.507,1066.972z"/>
	<path style="fill:#FFFFFF;" d="M1129.813,994.176c-3.325,0.256-5.192,2.354-5.233,5.67c-0.047,3.777,2.171,6.037,5.797,6.008
		c3.651-0.029,5.612-2.401,5.715-6.487C1135.527,996.125,1133.634,993.882,1129.813,994.176z"/>
	<path style="fill:#FFFFFF;" d="M842.065,891.854c-3.614,0.241-5.641,2.661-5.31,6.436c0.292,3.328,2.308,5.229,5.646,5.219
		c3.826-0.011,5.599-2.322,5.816-5.602C847.925,893.722,845.676,891.613,842.065,891.854z"/>
	<path style="fill:#FFFFFF;" d="M614.087,896.001c-3.792,0.295-5.686,2.682-5.349,6.367c0.303,3.319,2.58,5.104,5.856,5.056
		c3.764-0.055,5.589-2.37,5.959-5.904C619.866,897.849,617.867,895.707,614.087,896.001z"/>
	<path style="fill:#FFFFFF;" d="M425.044,431.095c3.757-0.014,5.662-2.251,5.892-5.886c-0.445-3.847-2.688-5.758-6.336-5.609
		c-3.332,0.137-5.397,2.354-5.438,5.549C419.115,428.755,421.266,431.11,425.044,431.095z"/>
	<path style="fill:#FFFFFF;" d="M511.437,658.452c0.234-3.806-1.698-5.951-5.505-6.332c-3.396,0.187-5.528,1.822-5.775,5.264
		c-0.277,3.858,1.792,6.166,5.538,6.294C508.969,663.79,511.223,661.919,511.437,658.452z"/>
	<path style="fill:#FFFFFF;" d="M1043.404,918.341c-3.699-0.07-6.036,2.028-5.918,5.91c0.118,3.88,2.51,5.783,6.264,5.512
		c3.428-0.248,4.954-2.568,5.11-5.199C1048.649,920.473,1046.704,918.403,1043.404,918.341z"/>
	<path style="fill:#FFFFFF;" d="M1227.755,519.741c-0.001,3.403,1.938,5.405,5.341,5.569c3.874,0.186,5.769-2.03,6.231-5.887
		c-0.499-3.045-2.043-5.32-5.514-5.409C1230.035,513.917,1227.757,515.856,1227.755,519.741z"/>
	<path style="fill:#FFFFFF;" d="M828.035,514.179c-0.327,3.807,1.59,6.208,5.367,6.399c3.248,0.164,5.554-1.59,5.857-5.055
		c0.333-3.805-1.558-5.958-5.702-6.485C830.628,509.285,828.334,510.707,828.035,514.179z"/>
	<path style="fill:#FFFFFF;" d="M745.038,811.003c-0.338-3.233-2.12-5.254-5.541-5.338c-3.927-0.097-5.943,2.229-5.901,5.938
		c0.038,3.341,2.167,5.496,5.497,5.514C742.797,817.137,744.941,815.008,745.038,811.003z"/>
	<path style="fill:#FFFFFF;" d="M1418.716,546.662c-3.63-0.248-6.191,1.771-6.225,5.663c-0.033,3.8,2.156,5.972,5.999,5.851
		c3.447-0.109,5.08-2.344,5.416-5.376C1423.839,549.112,1421.941,546.882,1418.716,546.662z"/>
	<path style="fill:#FFFFFF;" d="M926.563,946.321c-3.721,0.012-5.98,2.106-5.858,6.002c0.108,3.432,2.169,5.17,5.708,5.508
		c3.646-0.235,5.798-2.325,5.72-6.063C932.063,948.423,929.924,946.31,926.563,946.321z"/>
	<path style="fill:#FFFFFF;" d="M527.629,570.075c-0.335-3.54-2.216-5.72-5.524-5.799c-3.668-0.087-6.079,1.933-6.028,5.858
		c0.044,3.396,1.976,5.433,5.386,5.587C525.381,575.898,527.174,573.536,527.629,570.075z"/>
	<path style="fill:#FFFFFF;" d="M1146.017,431.023c3.881,0.181,6.052-2.122,6.046-5.82c-0.005-3.291-2.106-5.248-5.669-5.607
		c-3.108,0.152-5.5,1.641-5.805,5.052C1140.254,428.381,1142.123,430.842,1146.017,431.023z"/>
	<path style="fill:#FFFFFF;" d="M181.561,574.669c-3.74-0.287-6.063,1.961-6.098,5.754c-0.031,3.311,1.87,5.345,5.252,5.77
		c3.367-0.036,5.657-1.531,6.079-4.94C187.266,577.436,185.272,574.953,181.561,574.669z"/>
	<path style="fill:#FFFFFF;" d="M211.58,847.871c0.275-3.806-1.803-5.882-5.644-6.348c-3.601,0.419-5.847,2.28-5.668,6.171
		c0.158,3.413,2.167,5.292,5.569,5.352C209.252,853.106,211.336,851.242,211.58,847.871z"/>
	<path style="fill:#FFFFFF;" d="M1341.022,423.884c3.39,0.274,5.582-1.556,6-4.917c0.474-3.808-1.552-5.962-5.691-6.751
		c-2.611,0.507-5.225,1.571-5.555,5.139C1335.426,421.135,1337.159,423.571,1341.022,423.884z"/>
	<path style="fill:#FFFFFF;" d="M418.512,1150.832c-0.176,3.377,1.671,5.512,5.067,5.847c3.86,0.38,5.863-1.768,6.608-5.843
		c-0.569-2.645-1.745-5.187-5.299-5.414C421.121,1145.183,418.713,1146.965,418.512,1150.832z"/>
	<path style="fill:#FFFFFF;" d="M400.928,1124.504c-0.041,3.856,2.19,5.753,5.79,5.956c3.615-0.307,5.585-2.298,5.643-5.606
		c0.066-3.784-2.17-6.034-5.964-5.903C403.105,1119.063,400.965,1121.067,400.928,1124.504z"/>
	<path style="fill:#FFFFFF;" d="M153.388,629.104c-3.82-0.072-6.02,2.071-5.923,5.861c0.084,3.305,2.077,5.403,5.498,5.456
		c3.828,0.059,5.78-2.086,5.971-5.788C158.612,631.153,156.773,629.168,153.388,629.104z"/>
	<path style="fill:#FFFFFF;" d="M827.832,474.951c4.326,0.093,6.509-1.839,6.768-5.051c0.292-3.635-1.713-6.193-5.595-6.264
		c-3.795-0.07-5.978,2.074-5.877,5.933C823.217,473.007,825.355,474.703,827.832,474.951z"/>
	<path style="fill:#FFFFFF;" d="M1106.421,888.037c-0.101-4.288-2.127-6.382-5.358-6.505c-3.666-0.14-6.09,1.988-6.022,5.867
		c0.068,3.858,2.42,5.871,6.196,5.646C1104.667,892.841,1106.219,890.501,1106.421,888.037z"/>
	<path style="fill:#FFFFFF;" d="M743.352,619.295c-0.114-3.402-2.083-5.358-5.485-5.459c-3.4-0.1-5.497,1.719-5.793,5.123
		c-0.333,3.842,1.752,5.883,5.56,6.481C741.181,625.003,743.482,623.185,743.352,619.295z"/>
	<path style="fill:#FFFFFF;" d="M472.713,1013.641c3.871,0.179,6.048-2.083,6.049-5.794c0.002-3.303-2.074-5.252-5.473-5.582
		c-3.308,0.091-5.657,1.597-5.973,5.007C466.97,1011.008,468.812,1013.461,472.713,1013.641z"/>
	<path style="fill:#FFFFFF;" d="M720.063,1064.126c3.291-0.192,5.442-1.831,5.705-5.25c0.298-3.876-1.858-6.179-5.567-6.268
		c-3.752-0.09-5.932,2.252-5.776,6.055C714.562,1062.012,716.598,1063.868,720.063,1064.126z"/>
	<path style="fill:#FFFFFF;" d="M344.793,1246.791c-3.971,0.471-5.756,2.893-5.388,6.54c0.338,3.344,2.688,5.093,6.037,4.878
		c3.344-0.215,5.352-2.177,5.325-5.61C350.737,1248.735,348.492,1246.901,344.793,1246.791z"/>
	<path style="fill:#FFFFFF;" d="M372.574,1047.253c3.691,0.2,5.963-1.769,6.234-5.802c-0.273-3.658-2.28-5.752-6.116-5.598
		c-3.447,0.139-5.253,2.297-5.309,5.632C367.327,1044.863,369.242,1047.073,372.574,1047.253z"/>
	<path style="fill:#FFFFFF;" d="M1269.847,621.204c2.339-3.783,4.007-0.3,5.903,0.556c3.207,1.447,5.776,0.356,7.482-2.357
		c1.512-2.404,1.303-5.069-0.814-7.163c-2.385-2.36-5.051-2.465-7.843-0.539c-1.513,1.044-1.738,3.952-4.526,3.15
		c-2.86-4.148-6.092-3.674-9.167-0.445c-2.006,2.107-2.084,4.8-0.114,6.984C1263.726,624.667,1266.906,625.304,1269.847,621.204z"/>
	<path style="fill:#FFFFFF;" d="M1152.905,488.346c0.442,1.115,0.883,2.23,1.325,3.345c-3.36,1.834-4.579,4.54-1.989,7.597
		c2.359,2.784,6.454,2.399,8.496,0.623c2.376-2.066,1.781-5.658-1.042-8.061c0.225-1.107,0.45-2.213,0.675-3.32
		c3.507-2.89,2.657-5.959-0.097-8.563c-2.026-1.915-4.825-1.968-6.99-0.128C1150.296,482.38,1149.635,485.361,1152.905,488.346z"/>
	<path style="fill:#FFFFFF;" d="M445.732,1123.445c0.179,3.303,2.204,5.346,5.643,5.312c3.858-0.038,5.713-2.26,5.829-6.34
		c-0.473-3.039-2.333-5.043-5.712-5.01C447.689,1117.445,445.526,1119.647,445.732,1123.445z"/>
	<path style="fill:#FFFFFF;" d="M1220.747,850.45c-3.837-0.082-5.895,2.272-5.742,6.043c0.137,3.358,2.204,5.176,5.644,5.396
		c3.301-0.197,5.477-1.804,5.703-5.242C1226.604,852.796,1224.52,850.53,1220.747,850.45z"/>
	<path style="fill:#FFFFFF;" d="M672.217,930.773c-0.186-3.33-2.376-5.268-5.759-5.17c-3.819,0.111-5.849,2.322-5.612,6.152
		c0.212,3.431,2.388,5.044,5.613,5.236C670.447,936.72,672.423,934.47,672.217,930.773z"/>
	<path style="fill:#FFFFFF;" d="M541.066,809.489c-0.04-3.956-1.957-6.202-5.755-6.195c-3.308,0.006-5.444,1.917-5.555,5.349
		c-0.121,3.784,1.835,6.017,5.709,6.018C538.871,814.663,540.695,812.701,541.066,809.489z"/>
	<path style="fill:#FFFFFF;" d="M893.212,507.752c3.904-0.238,5.604-2.789,5.245-6.471c-0.335-3.439-2.758-4.813-6.12-4.954
		c-3.174,0.516-5.239,2.314-5.173,5.715C887.237,505.818,889.361,507.986,893.212,507.752z"/>
	<path style="fill:#FFFFFF;" d="M637.758,554.866c3.759,0.417,5.968-1.501,6.513-5.329c-0.039-3.3-1.637-5.595-4.972-5.924
		c-3.644-0.359-6.195,1.37-6.435,5.285C632.657,552.25,634.388,554.492,637.758,554.866z"/>
	<path style="fill:#FFFFFF;" d="M726.955,506.164c3.345-0.012,5.602-1.526,5.936-4.918c0.364-3.702-1.381-6.146-5.261-6.379
		c-3.322-0.2-5.596,1.464-5.925,4.861C721.348,503.424,723.111,505.73,726.955,506.164z"/>
	<path style="fill:#FFFFFF;" d="M1255.789,991.927c-3.389,0.251-5.464,1.922-5.568,5.354c-0.115,3.809,1.89,5.976,5.73,5.931
		c3.902-0.046,5.735-2.429,5.51-6.148C1261.256,993.671,1259.085,992.043,1255.789,991.927z"/>
	<path style="fill:#FFFFFF;" d="M1220.637,641.417c-0.258,3.787,1.737,5.868,5.518,6.204c3.377-0.126,5.53-1.809,5.735-5.169
		c0.227-3.717-1.665-6.057-5.543-6.148C1222.982,636.225,1220.867,638.033,1220.637,641.417z"/>
	<path style="fill:#FFFFFF;" d="M640.487,725.029c-3.295-0.21-5.605,1.458-5.946,4.862c-0.371,3.704,1.403,5.999,5.17,6.454
		c3.428,0.021,5.666-1.527,6.019-4.902C646.117,727.735,644.337,725.275,640.487,725.029z"/>
	<path style="fill:#FFFFFF;" d="M994.976,494.107c3.344-0.239,4.98-2.485,5.121-5.787c-0.48-3.769-2.546-5.803-6.35-5.463
		c-3.375,0.301-5.156,2.445-5.039,5.808C988.844,492.584,991.321,494.368,994.976,494.107z"/>
	<path style="fill:#FFFFFF;" d="M640.29,426.186c3.314-0.038,5.254-1.959,5.524-5.528c-0.171-3.582-1.96-5.829-5.843-5.767
		c-3.401,0.055-5.34,2.014-5.458,5.383C634.379,424.12,636.526,426.228,640.29,426.186z"/>
	<path style="fill:#FFFFFF;" d="M418.606,781.886c3.515-0.234,5.562-1.957,5.651-5.366c0.099-3.78-1.89-5.958-5.746-5.931
		c-3.386,0.024-5.37,1.915-5.497,5.312C412.87,779.748,414.985,781.665,418.606,781.886z"/>
	<path style="fill:#FFFFFF;" d="M1091.431,431.003c3.812,0.246,5.834-1.811,6.182-5.514c-0.135-3.438-1.876-5.58-5.205-5.768
		c-3.693-0.209-6.063,1.697-6.12,5.586C1086.238,428.659,1088.034,430.784,1091.431,431.003z"/>
	<path style="fill:#FFFFFF;" d="M84.165,590.778c-3.742-0.267-6.074,1.619-6.191,5.479c-0.101,3.341,1.679,5.522,5.068,5.76
		c3.748,0.264,5.916-1.655,6.252-5.495C89.188,593.171,87.542,591.018,84.165,590.778z"/>
	<path style="fill:#FFFFFF;" d="M590.007,819.339c-3.776-0.054-6.002,1.926-5.907,5.79c0.096,3.904,2.549,5.699,6.239,5.456
		c3.396-0.224,4.949-2.498,5.153-5.702C595.102,821.52,593.447,819.388,590.007,819.339z"/>
	<path style="fill:#FFFFFF;" d="M1127.861,434.3c0.109,3.323,1.96,5.409,5.377,5.492c3.805,0.092,5.795-1.985,6.003-5.898
		c-0.369-3.731-2.607-5.644-6.305-5.376C1129.602,428.759,1127.75,430.938,1127.861,434.3z"/>
	<path style="fill:#FFFFFF;" d="M446.935,514.889c3.417-0.089,5.102-2.181,5.395-5.561c-0.168-3.265-1.762-5.466-5.165-5.671
		c-3.718-0.225-6.115,1.606-6.177,5.498C440.926,513.01,443.159,514.988,446.935,514.889z"/>
	<path style="fill:#FFFFFF;" d="M1163.053,937.507c0.284,3.369,2.558,5.127,5.87,4.999c3.333-0.129,5.372-2.092,5.399-5.478
		c0.03-3.776-2.06-5.78-6.017-5.919C1164.612,931.548,1162.741,933.809,1163.053,937.507z"/>
	<path style="fill:#FFFFFF;" d="M508.491,1306.054c-3.405,0.193-5.202,2.425-5.161,5.719c0.041,3.313,1.943,5.44,5.338,5.539
		c3.744,0.109,5.866-1.868,6.074-5.661C514.421,1307.746,512.22,1305.842,508.491,1306.054z"/>
	<path style="fill:#FFFFFF;" d="M876.06,817.732c0.046-3.395-1.942-5.417-5.257-5.611c-3.268-0.191-5.629,1.455-5.98,4.859
		c-0.381,3.69,1.38,6.012,5.222,6.518C873.84,823.437,876.008,821.537,876.06,817.732z"/>
	<path style="fill:#FFFFFF;" d="M1408.147,685.721c-6.143-0.139-10.113,3.511-9.944,9.656c0.111,4.051-1.858,5.627-4.588,7.432
		c-18.894,12.497-37.754,25.043-56.615,37.59c-2.676,1.78-4.938,4.132-7.072-1.031c-1.214-2.938-4.72-3.283-7.586-1.507
		c-2.97,1.841-3.798,5.364-1.738,7.532c4.357,4.585,0.238,5.716-2.359,7.453c-17.621,11.789-35.139,23.744-53.025,35.12
		c-6.89,4.382-15.177,5.011-22.8,2.162c-37.985-14.194-75.826-28.773-113.742-43.151c-3.048-1.156-5.75-2.399-7.703-5.268
		c-17.652-25.927-35.421-51.776-53.105-77.682c-3.092-4.53-3.239-8.903,0.47-13.497c10.036-12.432,19.843-25.05,29.689-37.635
		c2.21-2.824,3.762-5.813,7.746-1.442c2.061,2.262,5.542,1.402,7.59-1.359c1.778-2.396,1.947-5.708-0.482-7.018
		c-6.512-3.513-2.115-6.299,0.148-9.188c16.84-21.5,33.728-42.963,50.624-64.419c1.955-2.483,3.661-5.194,7.078-6.153
		c3.024-0.848,3.829-3.412,3.491-6.224c-0.308-2.563-1.901-4.225-4.532-4.571c-2.883-0.379-4.937,0.74-6.428,3.367
		c-1.566,2.76-3.373,5.416-5.335,7.914c-30.324,38.617-60.676,77.214-91.069,115.777c-3.638,4.617-6.332,10.438-13.969,9.94
		c-2.501-0.163-4.85,2.344-5.675,4.889c-1.213,3.742-3.972,4.356-7.247,5.091c-41.617,9.342-83.119,19.225-124.878,27.873
		c-8.273,1.714-17.596,1.139-25.659-5.185c-27.429-21.513-55.327-42.428-83.006-63.623c-2.104-1.611-4.887-2.79-5.67-5.381
		c2.716-3.45,5.388-0.868,7.81-1.271c5.15-0.857,8.658-3.588,9.222-8.924c0.516-4.876-1.783-9.777-6.445-9.859
		c-7.992-0.14-17.131-0.821-23.323,5.135c-5.439,5.231-6.702,2.193-7.796-2.274c-1.623-6.63-6.307-10.641-11.919-7.94
		c-9.864,4.748-19.913,3.193-29.829,3.255c-11.383,0.072-22.854,2.95-34.302-1.782c-5.539-2.29-10.655,1.733-11.197,7.772
		c-0.433,4.824-3.012,7.142-6.158,9.718c-4.946,4.049-9.781,8.233-14.689,12.329c-7.415,6.19-12.206,6.221-19.662-0.062
		c-28.886-24.341-57.741-48.72-86.604-73.089c-3.71-3.132-7.32-5.938-8.938-11.211c-1.62-5.279-6.479-7.185-12.076-5.3
		c-12.663,4.265-23.41-0.172-33.161-7.741c-4.514-3.504-8.781-4.724-13.371-1.226c-4.6,3.506-5.334,8.429-2.191,13.149
		c3.153,4.735,7.869,5.726,13.008,3.035c2.208-1.156,3.862-2.389,6.923-2.389c15.331-0.001,25.032,15.341,40.529,14.402
		c0.426-0.026,0.901,0.68,1.345,1.055c23.533,19.87,47.06,39.747,70.603,59.605c2.067,1.743,4.2,3.014,0.698,5.78
		c-2.945,2.326-2.885,5.895-0.116,8.364c3.16,2.817,6.769,2.225,8.793-1.491c1.387-2.546,2.532-2.982,4.344-1.038
		c3.946,4.231,10.451,6.066,10.753,13.734c0.202,5.132,4.521,8.196,9.797,8.004c5.221-0.19,9.128-3.262,9.227-8.613
		c0.085-4.545,2.422-6.964,5.569-9.067c9.318-6.229,15.405-17.815,28.733-17.425c9.835-13.275,24.25-6.116,36.596-8.102
		c3.983-0.641,8.122-0.268,12.184-0.478c7.148-0.37,9.555,4.086,8.533,9.895c-3.667,20.844-7.878,41.592-11.882,62.377
		c-0.616,0.522-1.089,1.131-1.439,1.815c-0.796-1.551-2.435-2.458-3.724-3.632c-4.974-0.47-9.157,1.102-8.222,6.689
		c0.887,5.299,4.934,6.471,9.704,3.629c0.916-0.308,1.547-0.778,1.976-1.362c0.294,1.137,0.539,2.275,0.092,3.443
		c-5.031,27.695-10.002,55.402-15.134,83.078c-1.306,7.043-8.495,12.69-15.74,12.707c-82.524,0.192-165.047,0.353-247.571,0.535
		c-3.48,0.008-6.564,0.055-9.276-3.226c-3.381-4.092-8.239-4.248-12.586-1.342c-4.499,3.008-5.352,7.635-3.107,12.314
		c1.375,2.865,1.506,5.366,0.82,8.323c-10.621,45.782-21.178,91.579-31.727,137.378c-0.776,3.368-1.003,5.992-6.168,6.109
		c-5.235,0.118-7.076,7.056-2.604,9.344c5.462,2.794,3.854,5.879,2.952,9.784c-12.082,52.292-24.128,104.591-36.105,156.907
		c-0.981,4.285-1.863,8.102-5.957,10.987c-3.549,2.501-4.226,6.753-2.15,10.999c2.035,4.161,5.734,6.635,9.859,5.446
		c4.825-1.392,7.609,0.619,10.844,3.252c14.871,12.103,29.807,24.126,44.773,36.112c2.997,2.4,5.237,4.816,5.991,9.01
		c1.09,6.059,5.548,8.786,11.632,7.446c5.226-1.152,8.055-5.056,7.483-10.255c-0.661-6.016-4.663-9.542-10.797-8.806
		c-3.282,0.394-5.458-0.341-7.836-2.274c-16.457-13.377-33.277-26.328-49.319-40.183c-5.453-4.709-8.773-11.271-6.804-19.766
		c24.363-105.135,48.475-210.329,72.683-315.5c2.356-10.234,6.995-13.892,17.305-13.918c80.489-0.199,160.978-0.397,241.466-0.571
		c15.558-0.034,29.565,3.769,40.624,15.713c4.721,5.099,10.203,9.499,15.381,14.169c3.213,2.898,6.094,5.501,6.29,10.656
		c0.198,5.204,4.318,8.277,9.591,8.224c5.272-0.052,9.318-3.207,9.435-8.41c0.114-5.084,2.889-7.889,5.827-11.044
		c27.925-29.98,55.686-60.115,83.859-89.86c7.391-7.804,12.929-18.029,24.562-21.135c1.372-0.366,2.968-2.328,3.273-3.797
		c0.939-4.52,4.514-4.799,7.835-5.551c37.635-8.521,75.317-16.837,112.867-25.714c5.046-1.193,6.393,0.936,8.111,4.222
		c4.714,1.97,7.889,0.033,10.193-4.063c2.053,0.852,4.287,0.902,6.498,1.093c6.365,1.221,6.815,8.98,12.326,11.156
		c13.387,19.318,26.658,38.717,40.241,57.896c3.515,4.963,5.128,9.89,5.082,16.056c-0.382,51.437-0.493,102.876-0.575,154.314
		c-0.01,6.134,0.284,11.826-5.939,15.887c-3.25,2.121-3.478,6.509-3.049,10.422c0.305,2.781,1.413,5.374-0.873,8.19
		c-1.7,2.095-1.28,5.135,1.069,7.065c2.582,2.123,5.181,1.647,7.952-0.18c9.419-6.211,13.89-5.909,22.496,1.133
		c7.196,5.888,14.346,11.832,21.611,17.633c3.009,2.403,5.235,4.671,5.528,9.118c0.38,5.778,4.658,8.616,10.386,8.055
		c5.767-0.565,8.952-4.268,8.728-10.005c-0.224-5.753-3.937-8.116-9.47-9.506c-17.067-4.288-26.789-19.083-39.995-28.93
		c1.059-8.517-2.701-14.39-9.852-18.658c-0.773-0.461-0.651-2.721-0.646-4.145c0.184-45.625,0.393-91.251,0.66-136.876
		c0.012-2.038-1.021-4.85,2.868-5.007c9.601-0.388,11.852-6.455,10.547-15.526c24.237,9.219,47.752,18.202,71.309,27.071
		c2.785,1.048,3.84,2.465,4.185,5.577c0.527,4.763,3.877,6.261,8.264,4.309c7.983-3.551,21.378,0.744,25.683,8.544
		c2.195,3.977,5.316,6.079,9.865,5.744c4.577-0.337,8.118-2.779,8.528-7.266c0.416-4.55,3.165-6.452,6.334-8.555
		c42.826-28.43,85.631-56.893,128.457-85.323c2.622-1.741,5.089-3.58,8.644-3.591c6.303-0.019,9.852-3.852,9.765-9.89
		C1417.478,689.586,1413.871,685.851,1408.147,685.721z M890.337,706.792c-32.272,34.673-64.562,69.33-96.884,103.956
		c-2.294,2.458-4.122,6.198-8.357,4.099c-3.982,1.434-6.25-0.792-8.666-3.029c-8.955-8.292-18.061-16.421-26.98-24.751
		c-5.327-4.975-7.746-11.66-6.591-18.511c5.115-30.334,10.794-60.572,16.286-90.842c0.528-2.91,1.416-4.679,5.141-5.613
		c5.916-1.484,6.834-6.733,1.809-10.128c-3.178-2.147-3.247-3.767-2.65-6.903c2.711-14.254,5.199-28.552,7.692-42.846
		c1.15-6.595,3.857-7.713,9.332-3.509c36.176,27.778,72.479,55.39,108.676,83.141C895.569,696.78,895.793,700.931,890.337,706.792z"
		/>
	<path style="fill:#FFFFFF;" d="M827.895,724.054c-6.004,0.102-9.721,3.871-9.643,9.89c0.078,6.013,3.761,9.597,9.897,9.557
		c6.204-0.04,9.277-3.733,9.693-9.828C837.251,727.653,833.947,723.951,827.895,724.054z"/>
	<path style="fill:#FFFFFF;" d="M798.769,645.648c-3.21,0.284-5.348,2.359-5.338,5.756c0.011,3.766,2.19,6.058,5.922,6.032
		c3.788-0.027,5.53-2.602,5.943-6.29C804.493,647.736,802.547,645.313,798.769,645.648z"/>
	<path style="fill:#FFFFFF;" d="M851.05,713.59c-3.264,0.078-5.34,2.072-5.529,5.422c-0.212,3.75,1.781,6.131,5.477,6.318
		c3.767,0.19,5.673-2.193,6.062-5.838C856.736,715.807,854.816,713.5,851.05,713.59z"/>
	<path style="fill:#FFFFFF;" d="M779.786,660.954c-3.295,0.182-5.286,2.116-5.466,5.416c-0.207,3.806,2.074,6.02,5.617,6.142
		c3.632,0.126,5.627-2.262,6.098-6.24C785.255,663.283,783.666,660.739,779.786,660.954z"/>
</g>
</svg>
